<svg width="20" height="20" viewBox="0 0 20 20" fill="none" xmlns="http://www.w3.org/2000/svg">
<g clip-path="url(#clip0_0_121)">
<path d="M16.6665 2.49992H15.8332V1.66659C15.8332 1.20825 15.4582 0.833252 14.9998 0.833252C14.5415 0.833252 14.1665 1.20825 14.1665 1.66659V2.49992H5.83317V1.66659C5.83317 1.20825 5.45817 0.833252 4.99984 0.833252C4.5415 0.833252 4.1665 1.20825 4.1665 1.66659V2.49992H3.33317C2.4165 2.49992 1.6665 3.24992 1.6665 4.16658V17.4999C1.6665 18.4166 2.4165 19.1666 3.33317 19.1666H16.6665C17.5832 19.1666 18.3332 18.4166 18.3332 17.4999V4.16658C18.3332 3.24992 17.5832 2.49992 16.6665 2.49992ZM15.8332 17.4999H4.1665C3.70817 17.4999 3.33317 17.1249 3.33317 16.6666V6.66658H16.6665V16.6666C16.6665 17.1249 16.2915 17.4999 15.8332 17.4999Z" fill="#5C5C5F"/>
</g>
<defs>
<clipPath id="clip0_0_121">
<rect width="20" height="20" fill="white"/>
</clipPath>
</defs>
</svg>
