<svg width="22" height="22" viewBox="0 0 22 22" fill="none" xmlns="http://www.w3.org/2000/svg">
<path fill-rule="evenodd" clip-rule="evenodd" d="M0 6.34884C0 2.85522 2.85522 0 6.34884 0H15.6512C19.1448 0 22 2.85522 22 6.34884V15.6512C22 19.1448 19.1448 22 15.6512 22H6.34884C2.85522 22 0 19.1448 0 15.6512V6.34884ZM6.34884 1.53488C3.70292 1.53488 1.53488 3.70292 1.53488 6.34884V15.6512C1.53488 18.2971 3.70292 20.4651 6.34884 20.4651H15.6512C18.2971 20.4651 20.4651 18.2971 20.4651 15.6512V6.34884C20.4651 3.70292 18.2971 1.53488 15.6512 1.53488H6.34884ZM11 14.5814C12.978 14.5814 14.5814 12.978 14.5814 11C14.5814 9.02205 12.978 7.4186 11 7.4186C9.02205 7.4186 7.4186 9.02205 7.4186 11C7.4186 12.978 9.02205 14.5814 11 14.5814ZM11 16.1163C13.8256 16.1163 16.1163 13.8256 16.1163 11C16.1163 8.17436 13.8256 5.88372 11 5.88372C8.17436 5.88372 5.88372 8.17436 5.88372 11C5.88372 13.8256 8.17436 16.1163 11 16.1163ZM16.1163 5.88372C16.6814 5.88372 17.1395 5.42559 17.1395 4.86047C17.1395 4.29534 16.6814 3.83721 16.1163 3.83721C15.5512 3.83721 15.093 4.29534 15.093 4.86047C15.093 5.42559 15.5512 5.88372 16.1163 5.88372Z" fill="white"/>
</svg>
